<svg xmlns="http://www.w3.org/2000/svg" preserveAspectRatio="none" viewBox="0 0 1440 320">
<path fill="#fff" fill-opacity="1" d="M0,96L40,106.7C80,117,160,139,240,133.3C320,128,400,96,480,69.3C560,43,640,21,720,10.7C800,0,880,0,960,32C1040,64,1120,128,1200,128C1280,128,1360,64,1400,32L1440,0L1440,0L1400,0C1360,0,1280,0,1200,0C1120,0,1040,0,960,0C880,0,800,0,720,0C640,0,560,0,480,0C400,0,320,0,240,0C160,0,80,0,40,0L0,0Z"></path>

<path fill="#fff" fill-opacity="0.75" d="M0,96L34.3,106.7C68.6,117,137,139,206,122.7C274.3,107,343,53,411,74.7C480,96,549,192,617,213.3C685.7,235,754,181,823,144C891.4,107,960,85,1029,80C1097.1,75,1166,85,1234,85.3C1302.9,85,1371,75,1406,69.3L1440,64L1440,0L1405.7,0C1371.4,0,1303,0,1234,0C1165.7,0,1097,0,1029,0C960,0,891,0,823,0C754.3,0,686,0,617,0C548.6,0,480,0,411,0C342.9,0,274,0,206,0C137.1,0,69,0,34,0L0,0Z"></path>

<path fill="#fff" fill-opacity="0.5" d="M0,64L34.3,58.7C68.6,53,137,43,206,37.3C274.3,32,343,32,411,64C480,96,549,160,617,165.3C685.7,171,754,117,823,122.7C891.4,128,960,192,1029,197.3C1097.1,203,1166,149,1234,128C1302.9,107,1371,117,1406,122.7L1440,128L1440,0L1405.7,0C1371.4,0,1303,0,1234,0C1165.7,0,1097,0,1029,0C960,0,891,0,823,0C754.3,0,686,0,617,0C548.6,0,480,0,411,0C342.9,0,274,0,206,0C137.1,0,69,0,34,0L0,0Z"></path>

  <path fill="#fff" fill-opacity="0.25" d="M0,256L34.3,229.3C68.6,203,137,149,206,133.3C274.3,117,343,139,411,165.3C480,192,549,224,617,245.3C685.7,267,754,277,823,277.3C891.4,277,960,267,1029,256C1097.1,245,1166,235,1234,229.3C1302.9,224,1371,224,1406,224L1440,224L1440,0L1405.7,0C1371.4,0,1303,0,1234,0C1165.7,0,1097,0,1029,0C960,0,891,0,823,0C754.3,0,686,0,617,0C548.6,0,480,0,411,0C342.9,0,274,0,206,0C137.1,0,69,0,34,0L0,0Z"></path>
</svg>