<svg xmlns="http://www.w3.org/2000/svg" viewBox="0 0 1440 320">
<path fill="#a0cded" fill-opacity="0.5" d="M0,160L34.3,144C68.6,128,137,96,206,101.3C274.3,107,343,149,411,138.7C480,128,549,64,617,80C685.7,96,754,192,823,202.7C891.4,213,960,139,1029,133.3C1097.1,128,1166,192,1234,208C1302.9,224,1371,192,1406,176L1440,160L1440,320L1405.7,320C1371.4,320,1303,320,1234,320C1165.7,320,1097,320,1029,320C960,320,891,320,823,320C754.3,320,686,320,617,320C548.6,320,480,320,411,320C342.9,320,274,320,206,320C137.1,320,69,320,34,320L0,320Z"></path>
    <path fill="#a0cded" fill-opacity="1" d="M0,96L34.3,106.7C68.6,117,137,139,206,144C274.3,149,343,139,411,154.7C480,171,549,213,617,218.7C685.7,224,754,192,823,165.3C891.4,139,960,117,1029,122.7C1097.1,128,1166,160,1234,181.3C1302.9,203,1371,213,1406,218.7L1440,224L1440,320L1405.7,320C1371.4,320,1303,320,1234,320C1165.7,320,1097,320,1029,320C960,320,891,320,823,320C754.3,320,686,320,617,320C548.6,320,480,320,411,320C342.9,320,274,320,206,320C137.1,320,69,320,34,320L0,320Z"></path>
  <!-- <path fill="#a0cded" fill-opacity="1" d="M0,320L34.3,314.7C68.6,309,137,299,206,282.7C274.3,267,343,245,411,218.7C480,192,549,160,617,170.7C685.7,181,754,235,823,245.3C891.4,256,960,224,1029,186.7C1097.1,149,1166,107,1234,96C1302.9,85,1371,107,1406,117.3L1440,128L1440,320L1405.7,320C1371.4,320,1303,320,1234,320C1165.7,320,1097,320,1029,320C960,320,891,320,823,320C754.3,320,686,320,617,320C548.6,320,480,320,411,320C342.9,320,274,320,206,320C137.1,320,69,320,34,320L0,320Z"></path> -->
</svg>