<svg xmlns="http://www.w3.org/2000/svg" viewBox="0 0 1440 320">
    <!-- <path fill="#a0cded" fill-opacity="0.5" d="M0,96L34.3,106.7C68.6,117,137,139,206,144C274.3,149,343,139,411,154.7C480,171,549,213,617,218.7C685.7,224,754,192,823,165.3C891.4,139,960,117,1029,122.7C1097.1,128,1166,160,1234,181.3C1302.9,203,1371,213,1406,218.7L1440,224L1440,320L1405.7,320C1371.4,320,1303,320,1234,320C1165.7,320,1097,320,1029,320C960,320,891,320,823,320C754.3,320,686,320,617,320C548.6,320,480,320,411,320C342.9,320,274,320,206,320C137.1,320,69,320,34,320L0,320Z"></path> -->
  <path fill="#a0cded" fill-opacity="0.5" d="M0,192L34.3,160C68.6,128,137,64,206,69.3C274.3,75,343,149,411,160C480,171,549,117,617,80C685.7,43,754,21,823,32C891.4,43,960,85,1029,96C1097.1,107,1166,85,1234,85.3C1302.9,85,1371,107,1406,117.3L1440,128L1440,320L1405.7,320C1371.4,320,1303,320,1234,320C1165.7,320,1097,320,1029,320C960,320,891,320,823,320C754.3,320,686,320,617,320C548.6,320,480,320,411,320C342.9,320,274,320,206,320C137.1,320,69,320,34,320L0,320Z"></path>

  <path fill="#a0cded" fill-opacity="1" d="M0,192L34.3,192C68.6,192,137,192,206,181.3C274.3,171,343,149,411,138.7C480,128,549,128,617,149.3C685.7,171,754,213,823,224C891.4,235,960,213,1029,224C1097.1,235,1166,277,1234,282.7C1302.9,288,1371,256,1406,240L1440,224L1440,320L1405.7,320C1371.4,320,1303,320,1234,320C1165.7,320,1097,320,1029,320C960,320,891,320,823,320C754.3,320,686,320,617,320C548.6,320,480,320,411,320C342.9,320,274,320,206,320C137.1,320,69,320,34,320L0,320Z"></path>
</svg>